<?xml version="1.0" encoding="UTF-8"?>
<svg xmlns="http://www.w3.org/2000/svg" xmlns:xlink="http://www.w3.org/1999/xlink" width="800px" height="800px" viewBox="0 0 800 800" version="1.1">
<g id="surface1">
<path style=" stroke:none;fill-rule:nonzero;fill:rgb(0%,0%,0%);fill-opacity:1;" d="M 752.316406 9.898438 L 775.128906 9.898438 L 775.128906 447.566406 L 752.316406 447.566406 Z M 752.316406 9.898438 "/>
<path style=" stroke:none;fill-rule:nonzero;fill:rgb(0%,0%,0%);fill-opacity:1;" d="M 771.65625 108.304688 L 775.0625 0.46875 L 215.046875 137.222656 L 211.640625 245.058594 Z M 771.65625 108.304688 "/>
<path style=" stroke:none;fill-rule:nonzero;fill:rgb(0%,0%,0%);fill-opacity:1;" d="M 212.339844 155.789062 L 235.15625 155.789062 L 235.15625 654.886719 L 212.339844 654.886719 Z M 486.128906 79.003906 L 508.945312 79.003906 L 508.945312 547.386719 L 486.128906 547.386719 Z M 486.128906 79.003906 "/>
<path style=" stroke:none;fill-rule:nonzero;fill:rgb(0%,0%,0%);fill-opacity:1;" d="M 28.929688 722.589844 C 12.945312 680.066406 45.234375 628.257812 101.050781 606.871094 C 156.863281 585.488281 215.066406 602.621094 231.050781 645.144531 C 247.035156 687.667969 214.746094 739.472656 158.929688 760.859375 C 103.117188 782.246094 44.914062 765.109375 28.929688 722.589844 Z M 28.929688 722.589844 "/>
<path style=" stroke:none;fill-rule:nonzero;fill:rgb(0%,0%,0%);fill-opacity:1;" d="M 302.722656 618.574219 C 286.738281 576.054688 319.027344 524.246094 374.84375 502.859375 C 430.65625 481.476562 488.859375 498.609375 504.84375 541.132812 C 520.828125 583.652344 488.539062 635.460938 432.722656 656.847656 C 376.910156 678.230469 318.707031 661.097656 302.722656 618.574219 Z M 302.722656 618.574219 "/>
<path style=" stroke:none;fill-rule:nonzero;fill:rgb(0%,0%,0%);fill-opacity:1;" d="M 568.90625 517.84375 C 552.921875 475.320312 585.210938 423.511719 641.027344 402.128906 C 696.839844 380.742188 755.046875 397.875 771.027344 440.398438 C 787.011719 482.921875 754.722656 534.726562 698.910156 556.113281 C 643.09375 577.5 584.890625 560.363281 568.90625 517.84375 Z M 568.90625 517.84375 "/>
</g>
</svg>
