<svg xmlns="http://www.w3.org/2000/svg" viewBox="122.94 94.83 264.62 194.75" width="264.62" height="194.75"><metadata><rdf:RDF xmlns:rdf="http://www.w3.org/1999/02/22-rdf-syntax-ns#" xmlns:dc="http://purl.org/dc/elements/1.1/"><rdf:Description><dc:creator>RealFaviconGenerator</dc:creator><dc:source>https://realfavicongenerator.net</dc:source></rdf:Description></rdf:RDF></metadata><path fill="#000" d="M215.75254 94.825625c26.423.0253 43.768 14.360105 59.42 34.410105 2.176 2.788 8.241 10.015 6.938 13.45-.23.25-.4.415-.728.528-4.604 1.572-24.514-11.549-29.838-14.155-14.07-6.886-31.045-10.986-46.324-5.677-16.57 5.757-25.778 22.013-32.599 37.116-1.525 3.375-2.671 6.919-4.285 10.252 3.865.033 7.762.37 11.624.572 9.303.488 18.638 1.11 27.942 1.439 8.6.303 25.647.768 31.751 7.453 1.132 1.239 1.811 2.63 1.67 4.344-.157 1.916-1.156 3.335-2.616 4.502-9.658 7.715-42.594 6.42-54.927 6.342-7.565-.048-15.492.287-23.012-.522-1.169 3.303-2.44 9.38-3.466 13.087-1.638 6.287-3.399 12.64-5.387 18.825-1.951 6.068-.569 11.112 2.325 16.687 2.855 5.502 8.51 8.81 14.311 10.525 17.468 4.486 44.628-5.02 62.553-7.685 7.237-.638 18.259-3.758 25.022-.719 3.244 1.458-2.219 7.911-3.571 9.359-4.141 4.435-8.798 8.099-13.468 12.028-15.694 13.204-34.859 22.08-55.586 22.577-13.837.195-37.639-3.066-47.772-13.527-21.026-21.706-11.313-65.111-4.629-90.808 6.49-24.952 15.35-53.576 32.597-72.85 11.361-12.696005 36.034-17.204905 52.055-17.553105m159.675 24.357105c1.646.051 2.978.368 4.492 1.019 2.679 1.151 5.248 3.157 6.334 5.943 6.198 15.895-11.404 69.584-17.486 86.807-3.166 8.958-6.643 17.804-10.424 26.52-4.132 9.433-19.391 41.331-28.353 44.565-2.08.751-4.256.196-6.194-.699-9.885-4.562-21.414-24.201-26.225-34.021-2.277-4.649-4.186-9.422-5.998-14.267-5.226-14.54-9.127-36.865-9.528-52.305-.098-3.796-.768-13.209 2.124-15.992.425-.41 1.074-.76 1.683-.703 6.162.581 28.52 37.507 32.856 43.877 2.118 3.111 4.482 6.042 6.909 8.914 3.795-11.285 8.212-24.529 13.311-35.394 9.002-19.179 17.809-39.609 28.841-57.722 1.846-3.032 4.177-5.565 7.658-6.542"></path><style>@media (prefers-color-scheme: light) { :root { filter: none; } }
@media (prefers-color-scheme: dark) { :root { filter: invert(100%); } }
</style></svg>